<svg id="Icon_ionic-ios-arrow-dropright" data-name="Icon ionic-ios-arrow-dropright" xmlns="http://www.w3.org/2000/svg" width="94.131" height="94.131" viewBox="0 0 94.131 94.131">
  <path id="Path_4717" data-name="Path 4717" d="M15.7,11.255a4.384,4.384,0,0,1,6.177,0L43.468,32.91a4.362,4.362,0,0,1,.136,6.019L22.334,60.267a4.36,4.36,0,1,1-6.177-6.155L34.236,35.761,15.7,17.41A4.316,4.316,0,0,1,15.7,11.255Z" transform="translate(21.111 11.282)" fill="#dedede"/>
  <path id="Path_4718" data-name="Path 4718" d="M3.375,50.44A47.065,47.065,0,1,0,50.44,3.375,47.058,47.058,0,0,0,3.375,50.44Zm7.241,0A39.808,39.808,0,0,1,78.589,22.292a39.808,39.808,0,1,1-56.3,56.3A39.482,39.482,0,0,1,10.616,50.44Z" transform="translate(-3.375 -3.375)" fill="#dedede"/>
</svg>
