<svg id="Icon_ionic-ios-arrow-dropleft" data-name="Icon ionic-ios-arrow-dropleft" xmlns="http://www.w3.org/2000/svg" width="94.131" height="94.131" viewBox="0 0 94.131 94.131">
  <path id="Path_4715" data-name="Path 4715" d="M41.2,11.255a4.384,4.384,0,0,0-6.177,0L13.436,32.91a4.362,4.362,0,0,0-.136,6.019L34.57,60.267a4.36,4.36,0,1,0,6.177-6.155L22.69,35.784,41.222,17.433A4.364,4.364,0,0,0,41.2,11.255Z" transform="translate(16.116 11.282)" fill="#dedede"/>
  <path id="Path_4716" data-name="Path 4716" d="M50.44,3.375A47.065,47.065,0,1,0,97.506,50.44,47.058,47.058,0,0,0,50.44,3.375ZM78.589,78.589a39.808,39.808,0,1,1-56.3-56.3,39.808,39.808,0,1,1,56.3,56.3Z" transform="translate(-3.375 -3.375)" fill="#dedede"/>
</svg>
