<svg xmlns="http://www.w3.org/2000/svg" width="488.234" height="75.258" viewBox="0 0 488.234 75.258">
  <g id="Group_149" data-name="Group 149" transform="translate(-715.883 -87.252)">
    <g id="Group_146" data-name="Group 146">
      <g id="Group_144" data-name="Group 144">
        <path id="Path_4692" data-name="Path 4692" d="M903.7,120.951a4.795,4.795,0,1,0,0-9.588H890.712V87.99h10.836a11.646,11.646,0,0,1,11.63,11.63,11.282,11.282,0,0,1-2.042,6.524,12.019,12.019,0,0,1-7.319,21.558h-2.838v-6.751Zm-2.5-17.247a4.643,4.643,0,0,0,4.6-4.6,4.544,4.544,0,0,0-4.6-4.482h-3.46V103.7Z"/>
        <path id="Path_4693" data-name="Path 4693" d="M963.478,107.846a20.594,20.594,0,1,1-20.594-20.594A20.628,20.628,0,0,1,963.478,107.846Zm-33.017,0a12.424,12.424,0,1,0,12.423-12.425A12.421,12.421,0,0,0,930.461,107.846Z"/>
        <path id="Path_4694" data-name="Path 4694" d="M1010.093,103.25v4.028c0,12.482-9.078,21.161-19.743,21.161h-.057a20.509,20.509,0,0,1,.227-41.017h.171a20.476,20.476,0,0,1,12.65,4.539l-5.729,5.616a12.567,12.567,0,0,0-6.978-2.212h-.114a12.533,12.533,0,0,0-8.907,3.687,12.359,12.359,0,0,0-3.744,8.85,12.558,12.558,0,0,0,3.574,8.964,12.413,12.413,0,0,0,8.907,3.8,12.884,12.884,0,0,0,12.2-9.474h-8.964V103.25Z"/>
        <path id="Path_4695" data-name="Path 4695" d="M1047.346,113.065a15.4,15.4,0,0,1-30.8.057V87.99h7.942v25.075a7.458,7.458,0,0,0,7.488,7.432,7.246,7.246,0,0,0,5.221-2.156,7.541,7.541,0,0,0,2.212-5.219h-.057V87.99h7.943v25.075Z"/>
        <path id="Path_4696" data-name="Path 4696" d="M1067.578,110.909a19.008,19.008,0,0,1-6.013-2.5,10.918,10.918,0,0,1-5.106-8.964,10.642,10.642,0,0,1,2.894-8.112,13.792,13.792,0,0,1,9.247-3.915c5.787,0,9.02,2.1,11.914,3.972l1.3.851L1077.677,99l-1.418-.908c-2.554-1.646-4.2-2.723-7.659-2.723a6.065,6.065,0,0,0-3.518,1.475,2.8,2.8,0,0,0-.679,2.269c.056,2.042,1.474,3.177,5.105,4.085.453.113.794.227,1.135.34a21.035,21.035,0,0,1,8.793,5.276,11.489,11.489,0,0,1,3.121,7.772,12.37,12.37,0,0,1-12.312,11.971,23.541,23.541,0,0,1-6.977-.965,21.984,21.984,0,0,1-9.475-6.013l5.787-5.446a13.745,13.745,0,0,0,10.665,4.481,4.369,4.369,0,0,0,4.369-4.028c0-2.155-2.44-4.141-6.58-5.559l-.171-.057Z"/>
        <path id="Path_4697" data-name="Path 4697" d="M1096.946,119.816h14.808V127.7H1089V87.99h7.942Z"/>
        <path id="Path_4698" data-name="Path 4698" d="M1140.78,87.99l18.779,39.769h-8.794l-11.346-24.168-12.311,24.168H1118.2l20.253-39.769Z"/>
        <path id="Path_4699" data-name="Path 4699" d="M1204.117,87.99l-18.211,39.769h-1.93l-6.636-14.58-6.7,14.58h-1.928L1150.561,87.99h8.794l10.609,22.352,3.517-6.695-7.659-15.657h8.794L1184.941,110l10.382-22.011Z"/>
      </g>
      <g id="Group_145" data-name="Group 145">
        <path id="Path_4700" data-name="Path 4700" d="M728.875,155.021a4.818,4.818,0,0,0,4.879-4.765,4.867,4.867,0,0,0-4.879-4.822H715.883V122.061h10.836a11.645,11.645,0,0,1,11.63,11.629,11.283,11.283,0,0,1-2.042,6.525,12.019,12.019,0,0,1-7.319,21.558h-2.836v-6.752Zm-2.5-17.246a4.643,4.643,0,0,0,4.595-4.6,4.544,4.544,0,0,0-4.595-4.482h-3.461v9.077Z"/>
        <path id="Path_4701" data-name="Path 4701" d="M781.015,147.136a15.4,15.4,0,0,1-30.8.057V122.061h7.942v25.075a7.458,7.458,0,0,0,7.489,7.432,7.245,7.245,0,0,0,5.22-2.156,7.545,7.545,0,0,0,2.212-5.219h-.057V122.061h7.943v25.075Z"/>
        <path id="Path_4702" data-name="Path 4702" d="M815.172,122.061v26.664h-.057v.056a13.02,13.02,0,1,1-26.04,0v-.056h7.943v.056a4.969,4.969,0,0,0,1.475,3.574,5.155,5.155,0,0,0,3.631,1.532,5.028,5.028,0,0,0,3.574-1.532,4.973,4.973,0,0,0,1.475-3.574v-.056h.17v-19.46h-8.4l.171-7.2Z"/>
        <path id="Path_4703" data-name="Path 4703" d="M842.975,122.061l18.778,39.769H852.96l-11.347-24.168L829.3,161.83H820.4l20.253-39.769Z"/>
        <path id="Path_4704" data-name="Path 4704" d="M876.906,153.887h14.807v7.886H868.964V122.061h7.942Z"/>
        <path id="Path_4705" data-name="Path 4705" d="M922.068,122.061l18.778,39.769h-8.793l-11.346-24.168L908.4,161.83h-8.907l20.254-39.769Z"/>
      </g>
    </g>
    <g id="Group_147" data-name="Group 147">
      <rect id="Rectangle_241" data-name="Rectangle 241" width="15" height="7" transform="translate(870 136.01)"/>
    </g>
    <rect id="Rectangle_240" data-name="Rectangle 240" width="15" height="7" transform="translate(1089 102.01)"/>
  </g>
</svg>
